<!-- Generated by IcoMoon.io -->
<svg version="1.1" xmlns="http://www.w3.org/2000/svg" width="1126" height="1024" viewBox="0 0 1126 1024">
<g id="icomoon-ignore">
</g>
<path d="M89.601 512c-0.011-74.15 19.497-146.999 56.566-211.221s90.391-117.554 154.605-154.635c64.215-37.081 137.060-56.605 211.212-56.607s147.001 19.514 211.216 56.591c8.817 5.011 19.256 6.333 29.041 3.677s18.125-9.077 23.194-17.858c5.069-8.782 6.461-19.212 3.871-29.016s-8.955-18.184-17.705-23.312c-95.165-54.944-205.804-76.952-314.75-62.611-108.948 14.342-210.121 64.231-287.826 141.931s-127.601 178.869-141.95 287.817c-14.349 108.948 7.652 219.587 62.59 314.757 54.938 95.165 139.743 169.549 241.264 211.61s214.081 49.449 320.229 21.018c106.148-28.431 199.946-91.090 266.849-178.263 66.908-87.173 103.178-193.987 103.194-303.877 0-10.182-4.045-19.949-11.249-27.15-7.199-7.202-16.968-11.247-27.151-11.247s-19.953 4.045-27.151 11.247c-7.204 7.201-11.249 16.968-11.249 27.15 0 112.031-44.503 219.469-123.72 298.685-79.212 79.217-186.655 123.715-298.68 123.715-112.027 0-219.466-44.498-298.681-123.715s-123.718-186.655-123.718-298.685z" fill="#FFFFFF"></path>
<path d="M1076.787 155.186c3.569-3.57 6.4-7.809 8.335-12.473 1.93-4.665 2.924-9.665 2.924-14.714s-0.993-10.049-2.924-14.713c-1.935-4.665-4.767-8.904-8.335-12.474-3.574-3.57-7.808-6.403-12.477-8.334-4.664-1.932-9.661-2.927-14.71-2.927s-10.051 0.995-14.715 2.927c-4.664 1.932-8.904 4.764-12.472 8.334l-510.414 510.491-203.213-203.291c-3.57-3.57-7.809-6.403-12.473-8.334s-9.665-2.927-14.714-2.927c-5.049 0-10.049 0.995-14.713 2.927s-8.904 4.764-12.474 8.334c-3.57 3.57-6.403 7.809-8.334 12.473s-2.927 9.665-2.927 14.714c0 5.049 0.995 10.049 2.927 14.714s4.764 8.903 8.334 12.473l230.4 230.402c3.567 3.574 7.804 6.41 12.47 8.346s9.667 2.934 14.717 2.934c5.050 0 10.052-0.998 14.716-2.934s8.904-4.772 12.472-8.346l537.6-537.602z" fill="#FFFFFF"></path>
</svg>
